<?xml version="1.0" standalone="no"?>
<!DOCTYPE svg PUBLIC "-//W3C//DTD SVG 20010904//EN"
 "http://www.w3.org/TR/2001/REC-SVG-20010904/DTD/svg10.dtd">
<svg version="1.0" xmlns="http://www.w3.org/2000/svg"
 width="500.000000pt" height="500.000000pt" viewBox="0 0 500.000000 500.000000"
 preserveAspectRatio="xMidYMid meet">
<metadata>
Created by potrace 1.11, written by Peter Selinger 2001-2013
</metadata>
<g transform="translate(0.000000,500.000000) scale(0.100000,-0.100000)"
fill="#000000" stroke="none">
<path d="M183 4884 c-24 -14 -54 -44 -68 -68 l-25 -43 0 -1044 0 -1044 23 -40
c25 -44 72 -80 126 -95 23 -6 373 -10 964 -10 l927 0 0 -40 0 -40 -927 0
c-591 0 -941 -4 -964 -10 -54 -15 -101 -51 -126 -95 l-23 -40 0 -1044 0 -1044
25 -43 c15 -26 43 -54 69 -69 l43 -25 1044 0 1044 0 40 23 c71 40 105 112 105
223 l0 62 40 4 40 4 0 -66 c0 -115 33 -186 105 -227 l40 -23 1044 0 1044 0 43
25 c26 15 54 43 69 69 l25 43 0 1044 0 1044 -23 40 c-25 44 -72 80 -126 95
-23 6 -346 10 -881 10 l-844 0 39 40 39 40 806 0 c508 0 818 4 841 10 54 15
101 51 126 95 l23 40 0 1044 0 1044 -25 43 c-15 26 -43 54 -69 69 l-43 25
-1044 0 -1044 0 -40 -23 c-67 -38 -105 -113 -105 -209 l0 -48 -40 0 -40 0 0
48 c0 96 -38 171 -105 209 l-40 23 -1045 0 -1045 0 -42 -26z m2327 -919 l30
-16 0 -321 0 -321 -35 -64 c-20 -34 -38 -63 -40 -63 -3 0 -5 180 -5 400 0 273
3 400 10 400 6 0 24 -7 40 -15z m6 -1955 l24 0 0 -140 0 -140 -40 0 -40 0 0
146 c0 129 2 145 16 140 9 -3 27 -6 40 -6z"/>
</g>
</svg>
