<svg width="2004" height="567" viewBox="0 0 2004 567" fill="none" xmlns="http://www.w3.org/2000/svg">
<path d="M2 329.306L68.7611 325.786C107.295 323.755 126.953 338.259 126.953 375.795C126.953 413.804 101.755 429.318 67.7463 429.607L52.38 429.738V530.725L2 528.971V329.306V329.306ZM52.38 396.38L57.9299 396.254C67.2558 396.041 75.0588 394.221 75.0588 377.386C75.0588 365.926 70.7801 359.309 57.9299 359.802L52.38 360.015V396.38V396.38Z" stroke="black" stroke-width="3"/>
<path d="M202.525 467.909L168.761 467.659L163.733 494.081L111.838 493.135L154.406 321.271L217.632 317.939L259.961 495.835L208.062 494.888L202.525 467.909ZM186.137 357.82L185.646 357.838L174.052 429.678L196.98 429.492L186.137 357.82Z" stroke="black" stroke-width="3"/>
<path d="M339.3 365.12C339.3 357.06 339.3 342.227 328.976 342.65C315.882 343.187 315.374 352.496 315.374 404.808C315.374 458.691 316.635 466.433 328.976 466.514C337.032 466.566 340.307 458.263 340.307 435.096V420.781L389.181 420.244V432.182C389.181 476.453 372.302 501.569 328.218 500.704C263.479 499.433 263.479 463.306 263.479 405.703C263.479 349.882 263.479 311.998 328.218 308.496C381.873 305.593 388.167 335.726 388.167 365.137V378.911L339.3 380.206V365.12Z" stroke="black" stroke-width="3"/>
<path d="M483.128 303.944L537.794 301.063L493.458 389.906L543.343 501.002L486.654 499.968L460.956 434.974L453.664 449.942V499.367L403.283 498.448V308.153L453.664 305.497V379.352L454.158 379.339L483.128 303.944Z" stroke="black" stroke-width="3"/>
<path d="M616.893 347.536C616.893 338.907 613.611 330.984 605.046 331.335C597.492 331.645 593.463 338.941 593.463 347.225C593.463 387.755 668.53 364.755 668.53 439.436C668.53 488.057 649.135 506.999 602.535 506.086C563.991 505.329 542.828 490.335 542.828 446.317V440.987L591.695 440.839V450.254C591.695 460.239 595.479 468.247 604.293 468.305C613.611 468.365 616.64 459.182 616.64 450.26C616.64 437.025 612.36 434.169 605.808 429.911C599.006 425.661 589.939 421.754 580.863 416.722C553.662 401.838 544.6 391.043 544.6 361.308C544.6 333.531 552.154 318.035 563.742 308.178C572.298 300.947 585.151 294.596 604.806 293.533C655.685 290.781 664.246 319.56 664.246 354.357L616.894 355.889V347.536H616.893Z" stroke="black" stroke-width="3"/>
<path d="M757.694 289.471L808.074 286.816V505.829L757.694 504.91V418.006L733.518 418.257V504.469L683.137 503.551V293.401L733.518 290.746V367.977L757.694 367.323V289.471Z" stroke="black" stroke-width="3"/>
<path d="M887.921 278.217C952.669 274.714 952.669 322.866 952.669 393.819C952.669 467.035 952.669 512.956 887.921 511.685C823.187 510.415 823.187 466.335 823.187 396.052C823.187 327.942 823.187 281.718 887.921 278.217ZM887.921 319.74C877.1 320.184 875.076 329.675 875.076 395.157C875.076 460.664 877.1 470.079 887.921 470.15C898.761 470.22 900.775 460.754 900.775 394.714C900.775 328.699 898.762 319.296 887.921 319.74Z" stroke="black" stroke-width="3"/>
<path d="M956.955 278.967L1075.84 272.701V328.706L1041.58 329.94V565.169L991.209 563.415V331.754L956.955 332.988V278.967Z" stroke="black" stroke-width="3"/>
<path d="M1364.22 380.281C1364.22 361.847 1359.43 356.107 1350.22 355.424C1340.65 354.714 1335.86 364.536 1335.86 378.867V544.409L1264.41 552.605V375.304C1264.41 354.988 1259.62 348.698 1250.42 348.015C1240.84 347.304 1236.05 358.136 1236.05 373.889V555.857L1164.6 564.055L1164.6 271.297L1233.84 280.576V312.149L1234.59 312.228C1245.26 286.638 1263.3 277.575 1287.25 280.938C1306.4 283.628 1324.44 296.445 1334.76 322.796C1345.07 299.599 1363.12 291.593 1387.06 294.956C1412.47 298.524 1435.68 317.608 1435.68 358.856V532.958L1364.22 541.156V380.281V380.281Z" stroke="#E1007A" stroke-width="3"/>
<path d="M1522.96 459.712C1522.96 470.625 1523.69 485.261 1538.43 484.248C1552.42 483.286 1553.91 470.5 1553.91 450.584L1618.72 448.811C1618.72 473.405 1611.35 490.986 1597.36 503.119C1583.36 515.674 1563.11 523.361 1538.79 526.307C1459.97 535.857 1451.51 482.856 1451.51 420.236C1451.51 358.033 1459.97 305.195 1538.79 316.264C1620.19 327.696 1620.93 373.529 1620.93 429.536V432.515L1522.96 432.989V459.712H1522.96ZM1553.91 384.308C1553.91 365.108 1549.49 359.287 1538.06 358.281C1527.75 357.373 1522.96 362.596 1522.96 382.551V394.598L1553.91 395.9V384.308Z" stroke="#E1007A" stroke-width="3"/>
<path d="M1812.5 91.5C1812.5 91.5 1833 136.5 1821.5 155.5" stroke="black" stroke-width="3"/>
<path d="M1903 179.5C1903 179.5 1853.5 198.5 1831.5 187.5" stroke="black" stroke-width="3"/>
<path d="M1804.5 260C1804.5 260 1783.5 218 1796 196.5" stroke="black" stroke-width="3"/>
<path d="M1715 172.5C1715 172.5 1761.5 154.5 1785.5 164.5" stroke="black" stroke-width="3"/>
<path d="M1745 114C1745 114 1794 132.5 1801.5 153.5" stroke="black" stroke-width="3"/>
<path d="M1878 118C1878 118 1858 162 1834.5 169.5" stroke="black" stroke-width="3"/>
<path d="M1871.5 238.5C1871.5 238.5 1824.5 221 1816 199" stroke="black" stroke-width="3"/>
<path d="M1740 232C1740 232 1760.5 188.5 1783.5 182.5" stroke="black" stroke-width="3"/>
<path d="M1808.99 200.103C1823.73 200.103 1835.69 189.346 1835.69 176.078C1835.69 162.809 1823.73 152.053 1808.99 152.053C1794.24 152.053 1782.28 162.809 1782.28 176.078C1782.28 189.346 1794.24 200.103 1808.99 200.103Z" stroke="black" stroke-width="3"/>
<path d="M1670.95 84.6697C1690.94 89.7517 1708.83 97.3806 1724.59 106.211C1740.59 90.4205 1761.97 79.1279 1786.13 74.687C1777.08 48.5921 1765.45 27.0082 1751.12 22.6167C1712.02 10.6381 1631.2 74.5674 1670.95 84.6697ZM1694.89 180.301C1694.81 178.711 1694.77 177.114 1694.77 175.507C1694.77 154.58 1701.71 135.113 1713.64 118.866C1686.73 106.168 1661.54 98.3004 1647.95 104.315C1610.89 120.718 1603.99 217.338 1640.03 199.197C1658.16 190.072 1676.81 184.085 1694.89 180.301ZM1921.21 154.793C1950.21 146.653 1974.2 136.19 1979.08 123.295C1992.4 88.121 1921.34 15.4074 1910.11 51.1652C1904.46 69.1538 1895.98 85.2497 1886.17 99.4308C1903.72 113.822 1916.27 133.061 1921.21 154.793ZM1803.82 72.7129C1805.59 72.6399 1807.36 72.6014 1809.15 72.6014C1832.41 72.6014 1854.05 78.8483 1872.1 89.5809C1886.22 65.3667 1894.96 42.7036 1888.28 30.4789C1870.05 -2.86383 1762.65 -9.07448 1782.82 23.3526C1792.96 39.6655 1799.61 56.4411 1803.82 72.7129ZM1814.48 278.3C1812.71 278.373 1810.94 278.413 1809.15 278.413C1785.89 278.413 1764.25 272.164 1746.19 261.435C1732.08 285.646 1723.33 308.31 1730.02 320.535C1748.25 353.878 1855.64 360.089 1835.48 327.661C1825.34 311.348 1818.68 294.572 1814.48 278.3ZM1697.09 196.219C1668.08 204.359 1644.09 214.822 1639.21 227.718C1625.9 262.892 1696.96 335.605 1708.18 299.848C1713.83 281.859 1722.31 265.764 1732.13 251.583C1714.58 237.191 1702.03 217.953 1697.09 196.219ZM1978.27 151.816C1960.14 160.943 1941.49 166.928 1923.4 170.714C1923.48 172.303 1923.53 173.9 1923.53 175.507C1923.53 196.433 1916.58 215.9 1904.66 232.147C1931.57 244.845 1956.76 252.712 1970.35 246.698C2007.41 230.295 2014.31 133.674 1978.27 151.816ZM1947.35 266.344C1927.36 261.262 1909.47 253.634 1893.71 244.804C1877.71 260.593 1856.33 271.886 1832.17 276.327C1841.22 302.423 1852.85 324.006 1867.18 328.398C1906.28 340.375 1987.1 276.447 1947.35 266.344Z" stroke="black" stroke-width="3"/>
<path d="M1809.15 72.7446C1745.98 72.7446 1694.78 118.817 1694.78 175.65C1694.78 232.483 1745.99 278.556 1809.15 278.556C1872.32 278.556 1923.53 232.482 1923.53 175.65C1923.53 118.817 1872.32 72.7446 1809.15 72.7446ZM1809.15 259.823C1757.48 259.823 1715.6 222.137 1715.6 175.65C1715.6 129.163 1757.48 91.478 1809.15 91.478C1860.82 91.478 1902.71 129.163 1902.71 175.65C1902.71 222.137 1860.82 259.823 1809.15 259.823Z" stroke="black" stroke-width="3"/>
<path d="M1809.15 51.8625C1733.25 51.8625 1671.72 107.221 1671.72 175.508C1671.72 243.794 1733.25 299.153 1809.15 299.153C1885.05 299.153 1946.58 243.794 1946.58 175.508C1946.58 107.22 1885.05 51.8625 1809.15 51.8625Z" stroke="black" stroke-width="3"/>
</svg>
