<svg version="1" xmlns="http://www.w3.org/2000/svg" width="192" height="192" viewBox="0 0 144.000000 144.000000"><path d="M27.9 3.4c2.3 1.3 2.3 1.4.5 1.8-1 .2-3-.3-4.3-1.1-2.4-1.5-2.4-1.5-1.1.9 1 1.9 1 2.2 0 1.3-1.4-1.3-6 .2-6 2 0 .5-.6.7-1.3.4-1.1-.4-3.5 1.3-4 3-.1.5-.5.7-1 .5-.4-.1-.6.4-.5 1 .2.7-.3 1.2-1 1-.6-.1-1.3.3-1.3.8-.3 1.9-.5 2.5-1.7 4.7-.7 1.2-.8 2.4-.4 2.7 1.1.7.9 7.5-.3 8.4-.6.4-1.1 1.5-1.2 2.6-.1 1.3.2 1.5 1 .7.7-.7 1.4-.7 2.4 0 1.6 1.4 1.7-.3.1-1.9-.9-.9-.9-1.2 0-1.2.7 0 1.2.6 1.2 1.2 0 .9.4.8 1-.2 1.3-2 1.3-3.3 0-2.5-.5.3-1 .2-1-.4 0-.5.5-1.3 1-1.6.6-.3 1-1.1 1-1.7 0-.6-.7-.5-1.7.3-1.6 1.3-1.7 1.2-.4-.3.7-1 1.1-2.5.7-3.3-.3-.9-.2-1.3.4-1 .6.3 1 1.4 1 2.3 0 1.5.2 1.5 1.1.2.9-1.3 1-1.2.5.2-.3 1.1-.1 1.5.8 1.2 1.8-.7 1.6-3.3-.4-3.9-1.7-.5-2.4-3.5-.8-3.5.4 0 .8.7.8 1.5s.5 1.5 1.1 1.5c.5 0 .8-.4.5-.9-.3-.4.5-.7 1.7-.7 2.7.3 4.7-1.1 4.7-3.3-.1-1.4-.2-1.4-1.1.1-.5 1-1.5 1.8-2 1.8-.6 0-.3-.7.5-1.6.9-.8 1.6-2.1 1.6-2.7.1-.7.8.1 1.6 1.7 1.2 2.2 1.8 2.6 2.5 1.5.5-.8.3-1.7-.4-2.2-.8-.6-.8-.7.3-.4 1.6.4 2 3.2.8 5.9-.5.9-.4 2 .2 2.3 1.2.7.4 2.5-1.1 2.5-.5 0-.9-.7-.7-1.6.2-1-.2-1.9-.8-2.1-.6-.2-1 1-1 2.7 0 1.6.1 3 .2 3 2 0 5.4-2.7 5.4-4.4 0-1.2.1-3.7.1-5.6.1-3.1.1-3.2.8-1 .4 1.7.9 2.1 1.4 1.3.5-.7.3-2.1-.2-3.2-.8-1.5-.7-2.2.7-3.2 1.4-1.1 1.5-1.1.5 0-.7.8-.8 2-.3 3 .8 1.5 2.2 5.1 2.4 6.1.3 1.3 1.8 3 2.8 3 .7 0 .6-.5-.2-1.5-.6-.8-.9-1.9-.5-2.5.3-.5.1-1-.4-1-1.4 0-1.4-3.7 0-4.6.7-.4.9 0 .5 1.3s0 2.5.9 3.3c1.4 1.2 1.6 1 1-1.6-.5-2.6-.5-2.7.5-.6.6 1.5.7 3 0 4.1-.9 1.8-.4 3.1 1.2 3.1.5 0 .7-.4.4-.8-.2-.4-.1-1.4.4-2.2.5-.8.4-2.2-.2-3.4-1-1.9-1-2 .6-.7.9.8 1.4 2.1 1.1 3-.3.8-.3 1.2.1.8.4-.4 1.3-.2 2.1.4 2.5 2.1 1.4-.8-1.6-3.9-2.2-2.5-2.5-3.2-1.3-3.7.8-.3 1.7-.3 2 0 .3.3-.1.5-.8.5-1 0-.9.4.3 1.8.8.9 2.2 3 3.1 4.6 2 3.9 3.9 4 6 .6 1.6-2.8 1.5-2.9-.6-4.4-1.2-.9-1.8-1.6-1.2-1.6.6 0 1.4.3 1.8.7.3.4 1.6.8 2.8 1 1.7.3 1.9.1.8-1.2-.7-.9-.8-1.5-.2-1.5.5 0 1.3.7 1.6 1.6.5 1.3.9 1.4 2.1.4 2.2-1.9 5.7-.3 5 2.3-.6 2.1-.5 2.1.9.3s1.5-1.8 1.3.2c0 1.1-.5 1.8-1.1 1.5-.5-.4-.7.1-.2 1.3.4 1.2-.3.8-1.9-1.1-2.1-2.5-2.5-2.6-2.3-1 .2 1.1 1.2 2.7 2.4 3.5 1.2.8 2 2.3 1.9 3.2-.2.9.4 1.9 1.2 2.2 1.2.5 1.3.9.3 2.1-1 1.2-.9 1.5.4 1.5.9 0 1.6.6 1.6 1.4 0 .8-.7 1.3-1.5 1.2-1.7-.2-4.4-2.6-3-2.6.4 0 0-1-1.1-2.2-1.4-1.7-1.5-1.9-.2-1 1.5 1.2 1.7 1.1 1.5-.7-.1-1.6-.7-2-2.4-1.7-1.2.3-2.7-.2-3.4-1-.6-.7-1.6-1.1-2.3-.7-.6.4-.5-.1.2-1 1.2-1.4 1.1-1.6-.7-1.4-1.2.1-1.9.6-1.7 1.3.3.7-.6 1.1-2.4.9-1.7-.1-3.1.3-3.4 1.1-.3.8-1 1.4-1.6 1.4-.6 0-2.6 1.1-4.4 2.5-2.6 2-3.5 2.2-4.5 1.2-1.1-1-1.2-.7-.6 1.3.7 2.2.6 2.3-.9 1.1-1.3-1.1-1.4-1.6-.4-2.9.8-1 .8-1.3.2-.9-.7.4-1.6.1-2.2-.6-1-1.2-1.2-1.7-1.2-4 0-.6-.5-.4-1.1.6-.6.9-1.4 1.5-2 1.2-.5-.4-.9-.1-.9.5 0 .7.7.9 1.6.6.9-.3 1.2-.2.9.5-.4.6-1.3.8-2.1.5-.8-.3-1.3 0-1.1.7.1.7-.5 1-1.3.8-.8-.2-2.1-.4-2.7-.4-.7 0-1.3-.3-1.3-.7 0-1-3.3-.8-4.7.3-.9.6-1.3.6-1.3-.1 0-.6.6-1.2 1.3-1.5.6-.2.8-.8.4-1.3s-1.2-.3-1.6.5c-.5.7-1.1 1.2-1.5 1.1-.4-.1-1.2.1-1.9.3-.9.4-.9.8.2 1.5.9.7 1 1.2.2 1.6-.6.4-1.1 1.3-1.1 1.9 0 .8.3.8.9-.1.6-1 1-1 2.1.3 1.2 1.4 1 1.5-1.3 1.1-1.5-.3-2.7-.2-2.8.2 0 .4-.2 1.4-.4 2.3-.1.9.3 1.6 1.1 1.6 1 0 1.1-.4.3-1.3-.8-1-.5-1.2 1-1.1 1.3.1 2 .6 1.7 1.4-.5 1.1.7 1.8 1.8 1 .2-.1 1.3.9 2.4 2.3 1.4 1.8 1.7 2.7.9 3.2-1.8 1.2.2.9 2.4-.2 1.7-.9 1.7-1.4.6-3.3-1.6-2.7-1.6-5.9-.1-6.4.7-.2 1.1.8 1 2.6 0 1.7.3 3.1.7 3 .4 0 1.5.7 2.3 1.6.9.8 2.2 1.5 3 1.5.8 0 1.3.6 1.2 1.2-.2.7.4 1.2 1.3 1 .9-.1 3 .3 4.5.9 1.6.7 3.2 1.2 3.7 1.1.4-.1.7.3.7.9 0 .5.5.7 1.1.3.7-.4 1-.2.8.5-.3.7-.8 1.2-1.3 1.1-.5-.1-1.3.4-1.7 1.2-.7 1-.9 1-.9 0 0-.7-.4-1-1-.7-.5.3-1 0-1-.7 0-.9-.3-.9-1 .2-.8 1.3-1.4.8-1.2-1 0-.3-.8-.6-1.8-.6s-1.6.4-1.4.8c.3.4-.4.8-1.6.8-1.1 0-2.8.9-3.7 1.9-1.7 2.1-3.9 1.9-2.6-.2.3-.7-.3-.3-1.5.7-2.4 2.1-3.1 3.6-.8 1.7 2.4-2 2.9.7.8 4.3-2.5 4.3-2.6 18.6-.1 21.1 1.5 1.5 2 1.5 6.3-.5 2.5-1.2 5.3-2 6.1-1.6 2.5.9 1.7 3.5-1.7 5.2-7.5 3.9-8.9 9.3-4.5 17.8 2.4 4.7 9.5 12.4 11.7 12.7 3.6.4 4.8-.3 5.6-2.8.4-1.6.8-3 1-3.3l.9-2.7c.9-2.7 1.8-2.9 3.9-.7 1.2 1.2 1.3 2 .5 3.5-1.8 3.5-1.5 9.6.6 11.9 2.1 2.3 9.5 6.5 9.5 5.4 0-.4.6-.2 1.3.4.8.7 4.7 1 9.3.9l8.1-.2-.2-3.5c-.2-1.9-1-4.9-1.9-6.5-2.1-3.9-2-5.2.3-5.8 1.4-.3 2.4.6 4.1 3.5 3 5.4 6.1 7.2 11 6.4 6.8-1.1 15.7-7.2 18.6-12.8 2.2-4.3 1.3-5.3-8-8.8l-3-1.1 2.1-2c1.7-1.7 2.4-1.9 4.1-1 6 3.2 12.5 0 15.7-7.6 1.6-3.9 2.6-13.4 1.8-17.6-.7-3.6-4-4.8-7.8-2.6-4.5 2.6-6.7 2.7-7.1.4-.2-1.5.7-2.5 3.6-3.9 2.1-1 4.1-2.5 4.5-3.3.4-1.3.8-1.3 2.3-.2 1.4 1.1 1.5 1.1.5-.1-.7-.8-1.3-1.8-1.3-2.3 0-.4.6-.5 1.3-.1.9.6.9.4-.1-.8-1-1.3-1-1.7 0-2.1 1-.4 1-.6.1-.6-.7-.1-1.3-1-1.3-2.2 0-1.3.4-1.8 1.3-1.4.6.4.3-.1-.7-.9-1.1-.9-1.6-1.6-1.1-1.6s0-.6-1.1-1.4c-1.9-1.4-1.9-1.5.3-3.6 2.2-2 2.8-3 1.9-3-.3 0-1.2.7-2.1 1.7-1 1-1.9 1.2-2.3.6-2.4-3.6-7.8-9.3-8.9-9.3-.7 0-1.3-.5-1.3-1.1 0-.8-.4-.9-1.3 0-.8.6-1.7.8-2 .5-.3-.4-1.2.5-1.8 2-.7 1.4-1.7 2.6-2.2 2.6-.5 0-.4-.7.3-1.5 1-1.2 1-1.8-.1-3.2-.8-.9-.9-1.4-.3-1 1.2.7 1.2-2.9-.1-4-.4-.5-.5-.2 0 .6.5.9.4 1.2-.2.8-1.2-.7-1.1 2.3.2 4.2.8 1.4-2.3 4.7-3.4 3.5-.3-.3 0-.9.8-1.3 1.6-1.1 1.7-1.2.3-3.8-1-1.7-.9-2.5.4-3.8.9-.9 1.4-1.9 1-2.2-.3-.4-.6-.3-.6.1 0 .5-1.1.1-2.5-.8s-2.5-1.2-2.5-.7c0 .6.8 1.5 1.8 2 .9.6 1.3 1.1.8 1.1-.4 0-2.2-1.1-3.8-2.5-1.6-1.4-3.5-2.2-4-1.9-.6.4-.8.2-.4-.4.3-.6.2-1.3-.3-1.6-.5-.4-1.3-.2-1.6.4-.4.7-1.1.7-1.8.2-.7-.5-2.2-.8-3.4-.7-1.2.1-2-.2-1.7-.7.4-.5 1.2-.7 2-.4.8.3 1.4-.1 1.4-.8 0-.7.7-1.9 1.5-2.6.9-.8 1.5-.8 1.5-.2 0 .6-.5 1.2-1.2 1.4-.7.3-.9 1.2-.5 2.2.6 1.5 1 1.6 2.2.6.8-.7 1.3-1.6 1-2-.7-1.2 2.2-3.3 3.7-2.7.8.3.5.6-.6.6-1.1.1-1.6.4-1.3.8.4.3.1 1.3-.6 2.1-1 1.3-.8 1.4 1.1.8 2.1-.7 2.7.1 2.3 2.7-.2 1.1 3.2.4 4.1-.8 1.2-1.6.9-2.8-.4-1.8-.9.7-1.9.4-3-.9-1-1-1.4-1.8-.9-1.8.6 0 1.3.4 1.6 1 .3.5 1.1 1 1.7 1 .7 0 .5-.7-.4-1.8-.8-.9-1.8-2.4-2.2-3.2-.4-.8.2-.3 1.4 1.2 1.2 1.6 2.7 2.5 3.5 2.1.8-.3 1.2-1 .9-1.5-.4-.6.3-.5 1.5.1 2.5 1.4 2.8 2.3.4 1.4-1.1-.4-1.4-.3-.9.5.5.8.1 1-1.1.5-1.5-.5-1.4-.2.4 1.6 1.4 1.3 2 2.7 1.6 3.9-.6 1.4-.4 1.5.9.4.8-.7 2.4-.9 3.3-.5 1.1.4 1.6.2 1.2-.3-.3-.6-.2-1.6.2-2.3.7-1 1.3-1 3-.2 2.5 1.4 3-.3.5-1.7-2.3-1.3-.7-3.5 2-2.7 4.8 1.4 6.7 1.2 8.1-.9.8-1.1 1.5-1.5 1.5-.9 0 .7-.5 1.5-1.2 1.9-.7.5-.5 1.1.7 2.1 1.1.7 1.4 1.3.9 1.3-.6 0-1.5-.5-2.2-1.2-1.7-1.7-1.4.2.7 3.6.9 1.6 2.3 3.2 3.1 3.4 1.1.4 1.1 0-.2-1.5-2.2-2.4-2.3-3.3-.3-3.3 2 0 1.9-1.6-.2-3-1.7-1.1-1.7-1.1-.1-.6 1 .3 2 .1 2.3-.4.4-.6-.2-1-1.1-1-1 0-1.5-.3-1.1-.6 1.1-1.1 3.9.5 3.1 1.8-1.1 1.8-1.2 4.8-.2 5.4.8.5 1.2-.9.9-3.3-.1-.6.3-1.4.9-1.8.8-.5.7-1.2-.2-2.3-1.2-1.5-1.1-1.6.5-.3 1.3 1.1 1.7 1.1 1.7.1 0-.8.3-1 .7-.7.3.4 0 1.5-.8 2.4-1.7 2.1-1.9 5.5-.3 6 .7.2 1.1-.7 1-2.1 0-1.4.2-2.5.6-2.3.4.1 1.4-.7 2.3-1.8 1.6-2 1.6-2 .6.2-.6 1.2-.8 2.3-.3 2.6.4.2.1.2-.5.1-.7-.2-1.3 0-1.3.5 0 1.6 1.3 2 3.4 1 1.7-.9 1.7-.7-.4 1.1-1.7 1.5-1.9 2-.7 1.6 4.6-1.6 5-1.6 2.9-.4-1.2.8-2 1.7-1.6 2.1.4.4 1.3.2 2.1-.5.8-.6 1.3-.7 1.1-.2-.4 1.2.3 1.4 2.9.8 1.3-.4 2-1 1.7-1.5-.3-.5-.9-.7-1.3-.5-.4.3-.6-.8-.5-2.5.1-1.6-.2-2.6-.7-2.3-.5.3-.9 0-.9-.6 0-.5-1.3-2.4-3-4.2-1.6-1.7-3-2.7-3-2.3 0 .5-.7 0-1.6-1.1-.8-1-1.3-1.2-.9-.4.4.8-.1.6-.9-.4-.9-1.1-1.6-1.6-1.6-1.2 0 .5-.7.3-1.5-.4s-2.1-1-2.8-.7c-.8.3-2 .1-2.8-.3-.8-.5-1.9-.4-2.8.3-1.2.9-1.3.9-.8 0 .8-1.3-3-3.9-4.1-2.9-.3.3 0 .6.7.6s.9.5.5 1.2-.3.8.4.4 1.2-.3 1.2.3c0 1.3-6.2.2-7.2-1.3-.5-.7-.8-.4-.8.7 0 1.7-.2 1.7-2.6-.2-1.5-1.2-3.2-2.1-3.8-2.1-.6.1 0 .7 1.3 1.4 2.3 1.3 2.3 1.4.5 1.8-1 .3-2.7-.2-3.7-1.1-1.6-1.3-1.7-1.3-1.1.2.5 1.3.2 1.6-.9 1.1-1-.3-1.3-1.2-1-2.2.4-1-.3-.7-1.6.8-1.2 1.4-2 2-1.6 1.3.6-1.3-3.2-3.9-4.3-2.9-.3.3 0 .6.7.6s.9.5.5 1.2-.3.8.4.4 1.2-.3 1.2.3c0 1.3-6.2.2-7.2-1.3-.5-.7-.8-.4-.8.7 0 1.7-.2 1.7-2.6-.2C76.9 2.9 75.2 2 74.6 2c-.6.1 0 .7 1.3 1.4 2.3 1.3 2.3 1.4.5 1.8-1 .3-2.7-.2-3.7-1.1-1.6-1.3-1.7-1.3-1.1.2.5 1.3.2 1.6-.9 1.1-1-.3-1.3-1.2-1-2.2.4-1-.3-.7-1.6.8-1.2 1.4-2 2-1.6 1.3.6-1.3-3.2-3.9-4.3-2.9-.3.3 0 .6.7.6s.9.5.5 1.2-.3.8.4.4 1.2-.3 1.2.3c0 1.3-6.2.2-7.2-1.3-.5-.7-.8-.4-.8.7 0 1.7-.2 1.7-2.6-.2C52.9 2.9 51.2 2 50.6 2c-.6.1 0 .7 1.3 1.4 2.3 1.3 2.3 1.4.5 1.8-1 .3-2.7-.2-3.7-1.1-1.6-1.3-1.7-1.3-1.1.2.5 1.3.2 1.6-.9 1.1-1-.3-1.3-1.2-1-2.2.4-1-.3-.7-1.6.8-1.2 1.4-2 2-1.6 1.3.3-.7-.3-1.7-1.4-2.2-2.8-1.6-3.8-1.3-1.5.3 1.1.8 1.5 1.8 1 2.3-.5.4-1.1.3-1.3-.4-.3-.7-1.3-.9-3.2-.3-2.1.6-3.6.3-5.7-1.1-1.6-1-3.3-1.9-3.9-1.9-.5.1.1.7 1.4 1.4zm-2.5 6.4c.3.5-.1.9-.9.9s-1.2-.4-.9-.9c.3-.4.7-.8.9-.8.2 0 .6.4.9.8zm69 1.5c.4-.4.4.1 0 1-.7 2-.7 2-2.3-1.3-1.1-2.2-1-2.3.2-.8.8 1 1.7 1.5 2.1 1.1zM45 11.1c0 .5.4.8.8.5.4-.2.9.4.9 1.5.2 2.5-.1 2.4-2.1-.6-.9-1.4-1.2-2.5-.6-2.5.5 0 1 .5 1 1.1zm19-.1c0-.8.3-1.1.6-.7.3.3.1 1.4-.5 2.4-.6 1.1-1.1 1.3-1.1.5 0-.7-.4-1.1-.8-.8-.5.3-.9-.1-.9-.9 0-1.1.4-1.2 1.4-.4 1 .9 1.3.8 1.3-.1zm14.4.5c-.4.8-1.1 1.5-1.6 1.5-.6 0-.5-.6.2-1.5.7-.8 1.4-1.5 1.6-1.5.2 0 .1.7-.2 1.5zm34 2.4c-.4.3-.9 0-1.1-.7-.3-.6-.8-1-1.2-.8-.4.3-.8-.1-.8-.9 0-1.3.4-1.2 1.9.2 1 .9 1.5 1.9 1.2 2.2zm3.5-2.2c-.7 1-1.4 1.9-1.5 2.1-.1.2-.4-.4-.8-1.3-.3-.9-.2-1.3.3-1 .5.3 1.2.1 1.6-.5.3-.5.9-1 1.2-1 .3 0-.1.8-.8 1.7zm-82.4.3c-.3.5-1.2 1-1.8 1-.7 0-.6-.4.3-1 1.9-1.2 2.3-1.2 1.5 0zm3.5 0c0 .5-.2 1-.4 1-.3 0-.8-.5-1.1-1-.3-.6-.1-1 .4-1 .6 0 1.1.4 1.1 1zm14.7 1.2c-.3.8-.6.5-.6-.6-.1-1.1.2-1.7.5-1.3.3.3.4 1.2.1 1.9zm7-.7c.4.4.3.5-.4.2-.6-.4-1.3-.2-1.5.5-.3.8-.6.6-1-.4-.7-1.7 1.5-1.9 2.9-.3zm12.3.2c1-.9 1.1-.9.6 0-.4.7-.2 1.3.3 1.3 1.7 0 1.3 2.6-.6 4.1-1.6 1.3-1.7 1.2-.4-.4 1.1-1.4 1.1-2.1.3-2.9-.9-.9-1.2-.8-1.2.5 0 .9-.5 1.7-1.1 1.7-.5 0-.7-.5-.4-1.1.4-.5-.1-2-1.2-3.2-1.8-2.2-1.8-2.2.3-.5 1.6 1.4 2.3 1.5 3.4.5zm8.6 1.5c-.9 1.2-1.6 1.9-1.6 1.5 0-1.1 2.4-4.7 2.8-4.2.2.2-.3 1.4-1.2 2.7zm20.1-1c-.3.8-.6.5-.6-.6-.1-1.1.2-1.7.5-1.3.3.3.4 1.2.1 1.9zm7-.7c.4.4.3.5-.4.2-.6-.4-1.3-.2-1.5.5-.3.8-.6.6-1-.4-.7-1.7 1.5-1.9 2.9-.3zm-88.4.3c.4-.9.6-.9.6-.1.1.6-.8 1.8-1.9 2.6-1.1.8-1.7 1.7-1.3 2.1.4.4 0 .4-1 0-1.7-.6-2.5-2.5-.9-2.3 2.8.5 3.4-.1 2.1-1.9-1.3-1.5-1.2-1.6.3-.4 1.3 1 1.7 1 2.1 0zm28.1 4.1c3.9-.5 4.9 1.3 1.6 3.1-1.4.7-2 .7-2 0 0-.5.7-1 1.6-1 .8 0 1.3-.4.9-1-.3-.5-1.2-.7-2-.4-1.2.5-3.6-2.4-3.4-4.3 0-.4.5.2 1.1 1.5.6 1.2 1.6 2.2 2.2 2.1zM67 15.8c0 1.5-.2 1.5-1 .2-1.3-2-1.3-3.3 0-2.5.6.3 1 1.4 1 2.3zm36.4-1.2c.9 2.4.2 2.6-1.2.4-.7-1.1-.8-2-.3-2s1.2.7 1.5 1.6zm-27 .9c-.4.8-1 1.5-1.5 1.5-.4 0-.6-.7-.3-1.5.4-.8 1-1.5 1.5-1.5.4 0 .6.7.3 1.5zm24.6 3.8c-.8.9-.9.7-.4-.8.7-1.8.6-1.8-.9-.6-2 1.6-2.3.6-.4-1.3 1-1.2 1.3-1.2 2.1.1.5.9.4 1.9-.4 2.6zm-84.1 9.8c1-.6 2.3-.6 3.1-.1.8.5 1.8.6 2.2.4.4-.3.8-.1.8.5 0 1.3 2.2.8 5.3-1.1 2.2-1.5 2.7-1.5 3.7-.3.7.8.9 1.5.4 1.5-.4 0-.3.5.3 1.1 1.2 1.2.6 4.9-.9 4.9-.5 0-.6.6-.2 1.2.5 1 .4 1-.5.2-1-.9-1-1.7-.2-3.2 1.4-2.5 1.4-4.3.1-2.2-.9 1.3-1 1.3-1 0s-.2-1.3-1.1 0c-.9 1.3-1 1.2-.5-.3.3-.9.1-1.7-.5-1.7-.7 0-.9 1-.5 2.3.4 1.9.1 2.3-2.1 2.5-2.5.2-2.6.1-.8-1.1 1.4-1.1 1.5-1.6.5-2.2-.9-.5-1.1-.4-.6.3.4.7.2 1.2-.3 1.2-.6 0-1.1-.5-1.1-1.1 0-.8-.5-.7-1.5.1-.9.7-1.9 1-2.2.6-.4-.4-.1-1.1.7-1.7 1.1-.7.9-.8-1-.6-2.4.4-3.6 2.6-1.5 2.8 1.4.1 2.7 2.7 2 4-.4.6.1 1.9 1.1 3 .9 1 1.2 1.9.6 1.9s-1.9-1.1-2.8-2.5c-.9-1.4-2.1-2.2-2.7-1.8-.6.4-.8-.4-.5-2.1.3-1.5 0-3.3-.6-3.9-.6-.7-1.2-2.1-1.4-3.2-.2-1.8-.2-1.9.8-.2.8 1.3 1.6 1.5 2.9.8zm12.9 6.1c0 1.3.3 3.3.7 4.6.6 1.9.5 2.1-1.1 1.5-1.1-.4-2.5-1.3-3.2-2-.8-.7-1.8-1-2.4-.7-.6.4-.8.1-.6-.7.6-1.5 1-1.5 4.3-.3l2 .7-2-1.7c-1.1-1-1.4-1.5-.7-1.1.6.3 1.5-.1 1.8-.9.8-2.2 1.2-2 1.2.6zm67.5 1c.6 2.1-.4 4.8-1.9 4.8-2 0-2.6-1.7-1.4-4 1.2-2.3 2.6-2.6 3.3-.8z"/><path d="M29.6 28.9c-.4.5-.2 1.2.3 1.5.5.4 1.2.2 1.5-.3.4-.5.2-1.2-.3-1.5-.5-.4-1.2-.2-1.5.3zM94.5 37.9c-.3.5 0 1.3.6 1.7.7.4.9.3.5-.4-.3-.5 0-1.3.6-1.5.9-.4 1-.6.1-.6-.6-.1-1.4.3-1.8.8zM117 2.4c0 .2.8 1 1.8 1.7 1.5 1.3 1.6 1.2.3-.4S117 1.6 117 2.4zM57.6 15.9c-.4.5-1.7.8-3.1.7-1.3-.2-2.2 0-2 .4.2.4-.2 1.6-1 2.6s-1.4 2.3-1.4 2.9c0 .5.4.2 1-.8.6-.9 1.5-1.4 2.1-1.1.7.4.8.2.4-.4-.4-.7-.3-1.2.2-1.2 1.2 0 3.3 2.5 2.7 3.2-.3.3.1 1.1 1 1.8 1 .8 1.5.9 1.5.1 0-.6.5-1.1 1.1-1.1.5 0 .7.5.3 1.2-.5.7-.3.8.6.3 1-.6.8-1.2-.7-2.4-2.5-2.1-2.5-5.7.1-5.3 1.1.2 1.5-.1 1.1-.7-.8-1.3-3.2-1.4-3.9-.2zm-.8 3.6c-.3.3-.9-.2-1.2-1.2-.6-1.4-.5-1.5.5-.6.7.7 1 1.5.7 1.8zM107.4 16.8c2.1 2.4 1.7 3.4-1.5 3.9-1.4.2-1.8-.1-1.3-.9.4-.8.3-1-.2-.5s-.9 1.4-.9 2c0 .7-1.1 1.2-2.5 1.2-1.6 0-2.5.6-2.5 1.5 0 .8.6 1.4 1.3 1.2.6-.1 1.2.3 1.2.9 0 .5.5.7 1 .4.6-.4.8-1 .5-1.5-.3-.5 0-1.2.6-1.6.7-.4.9-.3.5.4-.3.6-.1 1.4.5 1.8.9.5 1 0 .6-1.7-.6-2.2-.5-2.3.8-.6 1.3 1.8 1.4 1.7 2-.4.6-1.7.9-1.9 1.7-.8.7 1.1.8.9.4-.6-.6-1.9-.5-1.9.8-.3 1.7 2.3 2.1 2.3 2.3-.2.1-1.1-.3-1.9-.9-1.7-.6.1-1.3-.5-1.5-1.3-.3-1.2-.2-1.2.5-.2s1.1 1 2.1-.2.9-1.5-.6-1.5c-1 .1-2.9-.3-4.3-.7-2.5-.7-2.5-.7-.6 1.4zm-6.4 6.6c0 .3-.4.8-1 1.1-.5.3-1 .1-1-.4 0-.6.5-1.1 1-1.1.6 0 1 .2 1 .4zM19.9 19.6c-.6.8-1.8 1.3-2.7 1.2-.8-.2-1.6.5-1.8 1.5-.1 1.1 0 1.6.3 1.3.4-.3 1.3.3 2 1.4 1.4 2 3.9 1.9 2.7-.1-.3-.5-.9-.7-1.4-.4-1.8 1.1-.2-2.7 1.7-4 1.6-1.1 2.2-1.2 2.5-.3.3.8.6.7 1-.3.8-2-2.7-2.2-4.3-.3zM28 20.1c-.9 1.7-.9 2 0 1.4.9-.5 1-.1.6 1.6-.6 2-.5 2.1.4.7 1.3-2.1 3.8-1.4 3.6 1 0 .9.2 1.7.5 1.7.4 0 1.6.8 2.8 1.9 1.9 1.7 2.1 1.7 2.7.2.3-.9 1-1.4 1.4-1.1.4.3 1.3-.2 2-1s1.9-1.5 2.6-1.5c2.2 0 1.6-1.6-1.1-3.4-1.5-1-2.5-1.2-2.5-.6s-.5.8-1 .5c-.6-.4-1-.3-.9.2.4 2.4-.1 3.7-1.2 2.6-.6-.6-1.7-.9-2.3-.7-1.3.5-5.3-3.3-4.8-4.4.2-.4-.1-.8-.7-1-.5-.2-1.5.7-2.1 1.9zm14 5.3c-.7.9-1.6 1.3-2.1 1-.5-.3-1.2.2-1.5 1-.5 1.4-.8 1.4-2.1.1-1.8-1.9-.7-4.1 1.2-2.5 1.1.9 1.6.6 2.5-1 .8-1.6 1.5-1.9 2.3-1.1.7.7.6 1.5-.3 2.5z"/><path d="M40.6 24.7c-.6 1.4-.5 1.5.5.6.7-.7 1-1.5.7-1.8-.3-.3-.9.2-1.2 1.2zM87 19c0 .5.5 1 1.1 1 .5 0 .7-.5.4-1-.3-.6-.8-1-1.1-1-.2 0-.4.4-.4 1zM113.9 19.3c.9 1.1 1 1.7.2 1.7-.6 0-1 .3-1 .7.4 2.7-.1 3.5-1.6 2.3-.9-.8-1.5-.9-1.5-.2 0 1.9 2.3 2.5 3.5.9 1-1.4 1.2-1.3 2.3.4.9 1.4 2 1.8 3.5 1.5 1.2-.3 1.6-.3.8 0-1.1.5-1.1.8 0 1.5 1 .6.7.8-.9.6-1.2 0-2.2-.5-2.2-1 0-.4-.5-.5-1.1-.1-.8.4-.7.9.2 1.5 1 .6 1 .9.2.9-.6 0-1.4-.4-1.8-1-.3-.5-1.3-.7-2.3-.4-1.4.5-1.5.4-.2-.5 1.2-.9.7-1-2-.6-3.4.6-3.4.5-1.5-1 1.1-.9 1.4-1.4.8-1-.9.4-1.1 0-.7-1.2.4-1.3.2-1.2-.8.3-.7 1.2-2.1 2-3 1.9-1-.2-2 .1-2.3.5-.3.5-1.2.7-2 .4-.9-.4-1.3.1-1.2 1.5.1 1.5.4 1.7 1.4.9.7-.6 1.3-.7 1.3-.3 0 .4.6.2 1.4-.4.9-.8 1.6-.8 2-.2.4.6 1.3.8 2.2.4.8-.3 1.4-.1 1.2.4-.3 1 3.9 6.4 5.9 7.6.7.5 2.1.3 3.2-.3 1.6-.8 2.2-.6 3 .7.8 1.4.9.7.5-2.7-.3-3.9-.2-4.2.8-2.5 2.1 3.4 1 9.2-1.5 8-.7-.4-.1.3 1.2 1.4 1.3 1.2 2.8 2.1 3.5 2.1.8 0 .8-.2-.1-.8-.8-.5-.6-1.3.7-3 1-1.2 2.1-1.8 2.4-1.3.4.5.2 1.2-.4 1.6-.5.3-1 1.2-1 1.8 0 .7.4.6 1-.3.5-.8 1.7-1.5 2.7-1.5 1 0 1.9-.7 1.9-1.5.1-.8.2-2.1.3-2.9 0-.8.4-1.2.7-.8.3.3 1.6.2 2.8-.3 1.6-.6 2.3-.5 2.3.4 0 .7-1 1.2-2.1 1.2-2.1-.1-2.3.8-1.3 5.9.2 1.1-.3 2.5-1.2 3.2-1 .7-1.1 1.2-.4 1.3.6 0 1.5-.5 1.8-1 .3-.6 1.1-1 1.6-1s.2 1.2-.8 2.7c-.9 1.6-1.3 2.5-.8 2.1.4-.4 1.4 0 2.1 1 1.1 1.5 1.2 1.3 1-1.6-.1-1.8.2-3.6.6-3.8.5-.3.6-1.4.3-2.4s-.1-2.1.5-2.5c.7-.4.8-1.1.2-1.8-.5-.7-.8-2-.7-3 .2-.9-.6-2.4-1.8-3.2-1.2-.8-1.6-1.5-1-1.5.7 0 1.5.4 1.8 1 .3.5 1.2 1 1.8 1 .7-.1.1-1-1.3-2.2l-2.5-2.1 2.5.7c1.4.4 2 .4 1.5-.1-.6-.4-1-1.8-.9-2.9.1-2.1-1.7-2.7-3.2-1.1-.4.4-1.3.2-2.1-.4-.7-.6-1.3-.9-1.3-.5s-1.1-.1-2.5-1-2.3-2-2-2.4c.3-.5.1-1.2-.5-1.5-.6-.4-.9-.1-.8.7.2.8-.5 1.2-2.1 1-1.8-.2-2.2.2-1.7 1.5.4 1.2 0 1-1-.5-.9-1.2-2.1-2.2-2.7-2.2-.5 0-.2.9.7 1.9 1.1 1.3 1.4 2.1.7 2.6-1.4.8-5.6-2.5-5.6-4.4 0-.8-.7-1.7-1.5-1.9-1.3-.5-1.3-.3-.1 1.1zm13.2 5.1c.1-.5.1-1.3 0-1.7-.1-.5.3-.6.9-.2.6.3.8 1 .5 1.5-.3.4.3 1.4 1.2 2.1 1.5 1.2 1.6 1.2 1-.5-.6-1.5-.5-1.7.6-.8.8.7 1.6 1.1 1.8.9.2-.1-.3.4-1.1 1.2-1.3 1.1-1.2 1.2.6.7 1.5-.4 2.4-.2 2.7.9.4.8.3 1.4-.1 1.4-2.2-.4-2.3.3-.2 2.1 1.3 1.1 1.9 2 1.4 2.1-.5 0-1.8.3-2.9.5-1.1.3-3.1.5-4.5.6-1.4 0-2 .3-1.4.5 1.3.4-3.4 6.3-5 6.3-.5 0-.2-.8.6-1.8 1.8-2 1.7-4.7-.1-8.1-1.3-2.3-1.5-2.3-2.6-.7-.7.9-1.6 1.3-1.9.8-.3-.5-1.5-.8-2.8-.6-3.1.3-3 .3-2.3 1.4.4.6 1.2.7 2.3.1 1-.5 2.2-.5 3.3.2 1.6 1 1.5 1.2-.8 2.4-2.4 1.2-2.8 1.1-5.7-1.8-3.2-3.2-4.8-7.1-2-4.8.8.6 1.7.9 2.1.6.3-.4 1.2-.2 1.9.4.7.6 1.9.7 2.6.3.7-.5 2-.9 2.8-.9.9 0 1.5-1 1.5-2.5 0-1.9.5-2.4 1.9-2.2 1.4.3 1.7-.1 1.2-1.5-.5-1.6-.5-1.6.9.1.8 1.1 1.6 1.6 1.6 1zm-9 .3c1.3 1.6 1.2 1.7-.3.4-1-.7-1.8-1.5-1.8-1.7 0-.8.8-.3 2.1 1.3zM131.6 38c0 2.1-1.1 2.6-2.1 1-.7-1.1.2-3 1.3-3 .4 0 .8.9.8 2zm7.2.4c.9.6 1 1.1.2 2.1-.6.7-.9 1.9-.7 2.6.2.8.2 1.1 0 .6-.3-.4-.8-.5-1.2-.3-.4.3-.8-.1-.8-.9s.4-1.5.9-1.5.6-.5.3-1c-.4-.6-1-.8-1.4-.6-.4.3-.8-.1-.8-.8 0-1.5 1.4-1.5 3.5-.2z"/><path d="M122.5 27.5c.2 3.9 2 5.7 6.4 6 3.5.3 4.2.1 3.9-1.3-.1-.9.1-2.3.6-3.1.6-1 .5-1.2-.3-.7-.7.5-2.1 0-3.2-1s-3.3-1.9-4.8-1.9c-2.2-.1-2.7.4-2.6 2zm7.7 1.4c1 1.3 1.8 2.8 1.8 3.5 0 .6-.5.4-1-.4-.7-1.1-1-1.1-1-.2 0 .7-.5 1-1 .7-.8-.5-.8-1.1-.1-1.9.8-.9.7-1.3-.4-1.3-.8 0-1.2.3-1 .7.2.3.1 1.1-.3 1.7-.5.6-1.4.3-2.7-1-1.7-1.7-1.7-1.9-.3-1.4 1 .3 2 .2 2.3-.4.4-.5.3-.9-.2-.8-.4.1-1.5.1-2.3 0-1.2-.1-1.3-.3-.1-1 2.1-1.3 4.2-.7 6.3 1.8zM116 35c-.9.6-1 1-.3 1 .6 0 1.5-.5 1.8-1 .8-1.2.4-1.2-1.5 0zM93.7 20.4c-.4 1 0 1.2 1.4.9 1-.3 1.6-.9 1.3-1.4-.8-1.3-2.1-1.1-2.7.5zM4 25.9c0 .6.4 1.2.8 1.5.5.3.9-.1.9-.9S5.3 25 4.8 25c-.4 0-.8.4-.8.9zM113.6 25.9c-.4.5-.2 1.2.3 1.5.5.4 1.2.2 1.5-.3.4-.5.2-1.2-.3-1.5-.5-.4-1.2-.2-1.5.3zM24.2 26.9c-1.1.7-1.1.9 0 1.4.9.3 1.5-.1 1.5-.9s-.1-1.4-.1-1.4c-.1 0-.7.4-1.4.9zM5.9 35.2c-.1.7-.1 1.9 0 2.7.2.8-.3 1-1.1.5-.8-.4-1-.3-.5.2s1.7 1 2.8 1c3.7.3 4 .4 3.3 1.5-.3.6-.9.7-1.3.3-.9-1.3-3.1-1.5-3.1-.3 0 .5-.5.7-1.2.3-.7-.4-.8-.3-.4.5.4.7 1.7.9 2.9.6 2-.5 1.9-.4-.3 1-1.4.9-1.7 1.4-.8 1.1 1.2-.3 1.5-.1 1.1.9-.3.8-1 1.2-1.5.9-.7-.4-.7 0 0 1.2 1.1 2.3.5 4.7-1 3.8-.7-.5-.8-.2-.3.6.6 1 1.2.8 2.4-.9 1.2-1.6 1.9-1.9 2.8-1 .8.8 1.3.8 1.8 0 .4-.7.1-1-.7-.9-.8.2-1.3-.9-1.4-2.9-.2-2.5.4-3.8 2.4-5.4 1.5-1.2 2-1.9 1.2-1.7-.8.3-2.7-.1-4.2-.9-3.1-1.5-3.8-2.6-1-1.6 1.5.6 1.5.5.3-1-1.6-2-2.1-2.1-2.2-.5zM15.6 41.3c.3 1 .9 1.5 1.2 1.2.3-.3 0-1.1-.7-1.8-1-.9-1.1-.8-.5.6z"/><path d="M12 42.5c-.9 1-.9 1.8 0 3.2 1.1 1.7 1.1 1.7.6 0-.3-1.1-.3-2.4.1-3 .4-.7 1-.2 1.4 1.3.6 2.3.7 2.3.8.3.1-2.8-1.3-3.7-2.9-1.8zM133 41.9c0 .7-.3 1-.7.8-.5-.3-.9.7-1 2.1l-.1 2.7 1.5-2.8c.8-1.6 1.2-3.1.9-3.5-.3-.3-.6 0-.6.7zM22.6 43.6c-1.1.8-1.6 1.4-1 1.4 1.3 0 3.9-1.8 3.4-2.4-.3-.2-1.4.2-2.4 1zM119 42.9c0 .9 3 2.4 3.6 1.8.2-.1-.6-.8-1.6-1.5-1.1-.7-2-.8-2-.3zM129.2 44c0 1.4.2 1.9.5 1.2.2-.6.2-1.8 0-2.5-.3-.6-.5-.1-.5 1.3zM26.7 44.1c.7.9 1 1.9.6 2.2-.3.4-.1.7.5.7 1.7 0 1.5-1.6-.5-3.1-1.6-1.2-1.7-1.2-.6.2zM17.9 45.2c-.6 2.2-.5 3.9.3 4.5.7.4.8.1.3-.7-.6-1-.3-1.2 1.1-.7 1.8.7 1.8.6.2-.6-1-.8-1.5-1.7-1.1-2 .3-.4.3-.7 0-.7-.4 0-.7.1-.8.2zM22.6 47.7c-.6 1.4-.5 1.5.5.6.7-.7 1-1.5.7-1.8-.3-.3-.9.2-1.2 1.2zM123.6 47.6c.1.6-.3 1.8-.9 2.5-1 1.1-.9 1.1.5 0 .9-.7 2.2-1 2.7-.6.7.3.8 0 .5-.9-.3-.9-1-1.4-1.4-1.1-.5.3-1 .2-1.3-.2-.2-.5-.3-.3-.1.3zM129.3 51.3c0 .8.6 1.4 1.4 1.4.9 0 1-.4.2-1.4-.6-.7-1.2-1.3-1.4-1.3-.1 0-.2.6-.2 1.3zM7.6 52.6c-.8 2-.8 2.4.2 2.4.4 0 .8-.9.9-2 .2-2.4-.3-2.6-1.1-.4zM15 52.1c0 .5.5.7 1 .4.6-.3 1-.8 1-1.1 0-.2-.4-.4-1-.4-.5 0-1 .5-1 1.1zM124.6 52.2c.3.5 1 .6 1.5.3 1.3-.9 1.1-1.2-.6-1.2-.8 0-1.2.4-.9.9zM135 51.9c0 .5.5 1.3 1 1.6.6.3 1 .2 1-.4 0-.5-.4-1.3-1-1.6-.5-.3-1-.2-1 .4zM5.4 56.5c.1.8.6 1.8 1.1 2.2.4.4.5.3.2-.4-.4-.6-.2-1.3.5-1.5.8-.3.6-.6-.4-1s-1.5-.2-1.4.7zM13.5 56c.3.5.8 1 1.1 1 .2 0 .4-.5.4-1 0-.6-.5-1-1.1-1-.5 0-.7.4-.4 1zM122.5 60c-.3.6.1.7.9.4 1.8-.7 2.1-1.4.7-1.4-.6 0-1.3.4-1.6 1zM137.5 118c.3.5.8 1 1.1 1 .2 0 .4-.5.4-1 0-.6-.5-1-1.1-1-.5 0-.7.4-.4 1zM7.4 121.6c0 2 1.1 2.5 1.1.6 0-.4.3-1.2.7-1.8.4-.6.1-1.1-.5-1.1-.7 0-1.3 1.1-1.3 2.3zM135.5 120c.3.5.8 1 1.1 1 .2 0 .4-.5.4-1 0-.6-.5-1-1.1-1-.5 0-.7.4-.4 1zM133.7 122.1c.7.7 1.5 1 1.8.7.3-.3-.2-.9-1.2-1.2-1.4-.6-1.5-.5-.6.5zM8.9 124.3c-1.3 1-1.4 1.5-.4 2.4.7.7 1.5 1 1.8.7.2-.3.7.2 1 1 .4 1.1.1 1.3-1 .9s-1.4-.2-.9.5c.4.7 1.4 1.2 2.2 1.2.8 0 1.3.4.9.9-.3.5-.1 1.2.5 1.6.6.4.7 1.2.4 1.8-.5.8-.3.8.7-.1 1.6-1.5 3.3-1.6 2.3 0-.4.7-.3.8.4.4s1.2-.2 1.2.3c0 .6.6 1.1 1.4 1.1.8 0 1.6.3 1.9.7.2.5.2.1 0-.7-.2-.8-.1-1.1.3-.7.4.4 1.3.2 2-.4.8-.7 1.4-.7 1.9.1 1 1.7 4.2 1.2 4.2-.8 0-.9-.3-2.2-.7-2.7-.4-.6-.6-1.8-.5-2.8.2-.9 0-1.5-.5-1.2-.9.6-.8 2.4.3 4.1.7 1.2-.1 2.4-1.5 2.4-.5 0-.7-.4-.3-.9 1-1.7-1.2-2.1-2.5-.6-.7.8-1.7 1.5-2.3 1.5-.7 0-.7-.4.1-1.2 1.5-1.5 1.5-2.8.1-2.8-.5 0-.7.4-.4 1 .9 1.4-.8 1.2-2.4-.3-1-.8-1.2-.8-.7 0 .3.6.2 1.4-.4 1.8-.5.3-1-.1-1-.9 0-1.5-1.1-2-2.6-1.4-.8.4-3.3-4.5-2.8-5.4.3-.4-.3-.5-1.3-.1-1.6.6-1.6.5-.4-1 1.6-2 1.2-2.1-1-.4zm6.5 8.8c-.3.5-1 .7-1.5.3-.5-.3-.7-1-.3-1.5.3-.5 1-.7 1.5-.3.5.3.7 1 .3 1.5zm4.3 1.4c0 .8-.4 1.2-.9.9-.5-.3-.6-1-.3-1.5.9-1.3 1.2-1.1 1.2.6zM134.6 125.6c-.9.8-1.6 2-1.6 2.6 0 .6-.7.5-1.7-.3-1.5-1.1-1.4-1 .1.9 1.9 2.2 1 3.1-1.2 1.2-.6-.6-1-.7-.7-.4.3.4-.3 1.3-1.3 2.1-1.5 1.3-1.5 1.4-.1 1 .9-.3 2.1-.1 2.7.5.7.7 1.4.3 2.3-1.3.7-1.3 1.2-2.5 1.1-2.7-.7-1 0-2.2 1-1.6.6.4.8.3.4-.4-.3-.6.2-1.5 1.1-2.1 1-.6 1.3-1.1.6-1.1-.6 0-1.9.7-2.7 1.6z"/><path d="M23 126.1c0 .5.5.7 1 .4.6-.3 1-.8 1-1.1 0-.2-.4-.4-1-.4-.5 0-1 .5-1 1.1zM27.6 126.2c.3.5 1 .6 1.5.3 1.3-.9 1.1-1.2-.6-1.2-.8 0-1.2.4-.9.9zM99.5 126c-.3.5-.1 1 .4 1 .6 0 1.1-.5 1.1-1 0-.6-.2-1-.4-1-.3 0-.8.4-1.1 1zM119 126.1c0 .5.5.7 1 .4.6-.3 1-.8 1-1.1 0-.2-.4-.4-1-.4-.5 0-1 .5-1 1.1zM123.6 126.2c.3.5 1 .6 1.5.3 1.3-.9 1.1-1.2-.6-1.2-.8 0-1.2.4-.9.9zM31.4 127.5c.1.8.8 2.1 1.6 2.8 1.2 1 1.2.9.2-.4-.6-.9-.9-1.8-.6-2.1.3-.3.1-.9-.4-1.2-.6-.3-.9.1-.8.9zM91.5 126.9c-.3.5-.2 1.2.3 1.5.5.3.9-.1.9-.9 0-1.7-.3-1.9-1.2-.6zM15 127.9c0 .6.4 1.3 1 1.6.6.3.7-.1.4-.9-.7-1.8-1.4-2.1-1.4-.7zM35.6 127.8c-.3.5.1.9.9.9s1.2-.4.9-.9c-.3-.4-.7-.8-.9-.8-.2 0-.6.4-.9.8zM48.5 128.1c-.3.4.2.6 1 .5 2.1-.3 2.8-1.3 1-1.3-.9 0-1.8.4-2 .8zM75.5 128.7c.1 1-.2 2.7-.8 3.8-.7 1.5-.7 1.7.2.9 1.5-1.4 2.2-5.2 1.1-5.9-.4-.3-.7.3-.5 1.2zM79.5 129c1 1.1 2 2 2.3 2 .3 0-.3-.9-1.3-2s-2-2-2.3-2c-.3 0 .3.9 1.3 2zM55.1 130.7c.7 1.2 1.5 2 1.8 1.7.3-.2-.3-1.2-1.3-2.2-1.7-1.6-1.8-1.6-.5.5z"/><path d="M66.5 130.4c1 .7 2 2.3 2.2 3.5.4 2.9-.3 2.6-2.1-.7-.9-1.5-1.5-2-1.6-1.2 0 .9.7 2.6 1.6 3.9l1.7 2.4L70 136c1.3-1.7 1.9-2 2.5-1 .5.8.4 1.1-.2.7-.6-.4-1.5.4-2.1 1.7-1 2.2-.9 2.3 3.4 2.1 2.4 0 4.7-.4 5-.8.4-.4 1.4-.1 2.2.6 1.3 1 1.4.9.2-1.3-.9-1.9-1-2.2 0-1.3.7.6 1.8.9 2.5.7.7-.3 1.6 0 2.1.7.4.7.3 1-.4.5-.6-.3-1.3-.2-1.6.3-.4.5.2.8 1.1.6 1-.1 1.7-.9 1.7-1.8-.1-1 .4-1.3 1.3-1 .8.3 1.2 1.1 1 1.8-.3.6.1 1.2.8 1.2 1.7 0 1.3-4.9-.5-5.5-.8-.3-1 0-.5.9.6 1.1.5 1.2-.5.2-1-.9-1.7-1-2.7-.1-1.1.9-1.2.7-.7-.8.6-1.6.5-1.7-.7-.7-.7.7-1.8 1.3-2.3 1.3-.6-.1 0-1 1.3-2 1.3-1.1 1.8-2 1.3-2-.6 0-1.4.5-1.7 1.1-.4.6-1.4.8-2.2.5-1.1-.4-1.3-.2-.9.9.3.8.1 1.5-.5 1.5s-.8.4-.5.8c.2.4.1 1.4-.3 2-.6 1-1.1.9-2.1-.3-1.1-1.3-1-1.5.1-1 1 .4 1.5-.2 1.6-1.6.2-1.7 0-1.9-1.4-.8-1.2 1.1-1.7 1.1-2.7-.2-.6-.9-1.7-1.4-2.5-1.1-.9.3-1.1 0-.6-.8.5-.8.4-1.1-.2-.7-.6.4-1.6 0-2.3-.8-.7-.8-1.7-1.5-2.3-1.5-.6 0-.2.6.8 1.4zm7.9 7.4c.2.4-.4.9-1.5.9-1.1.1-1.7-.2-1.4-.8.7-1.1 2.2-1.2 2.9-.1zM103.1 130.7c.7 1.2 1.5 2 1.8 1.7.3-.2-.3-1.2-1.3-2.2-1.7-1.6-1.8-1.6-.5.5zM114.8 130.6c1.2.8 1.9 2 1.6 2.6-.5.7-1.2.5-2.1-.7-1.2-1.7-1.3-1.7-1.3-.2 0 .9.5 1.7 1.1 1.7.5 0 .7.5.4 1-.3.6.1 1.3.9 1.6.9.3 1.4 1 1.1 1.4-.3.4.2 1.1 1.1 1.4.8.3 1.2.2.9-.3-.3-.5.3-1.2 1.3-1.6 2.6-.8 2.4-5.1-.2-4.7-1.2.2-1.6-.1-1-.9.4-.7.3-1-.3-.6s-1.6 0-2.3-.8c-.7-.8-1.7-1.5-2.3-1.5-.6 0-.1.7 1.1 1.6zm2.5 4.1c-.6 1.6-.3 1.5 1.7-.2l2.3-2-1.4 2.2c-.8 1.3-1.7 2.3-2.1 2.3-1.1 0-2-1.9-1.3-3 1-1.6 1.5-1.1.8.7zM119 129.4c0 .2.7.7 1.6 1 .8.3 1.2.2.9-.4-.6-1-2.5-1.4-2.5-.6zM123.3 131.6c0 1.8.4 2.4 1.4 2 .8-.3 1.1-.1.8.4-.3.6.5 1 1.9 1s2.6-.5 2.6-1.1c0-.5-.5-.7-1.1-.4-1.2.8-5.1-2.4-4.3-3.6.3-.5.1-.9-.4-.9s-.9 1.2-.9 2.6zM38.1 131.2c-.1 2.1 1.5 3.2 2.5 1.7.4-.7.3-.9-.4-.5-.6.3-1.3-.2-1.5-1.1-.4-1.6-.5-1.6-.6-.1z"/><path d="M41.9 131.2c1.1 1.5 1.1 1.9-.3 2.4-.9.3-1.3 1.1-1 1.6.4.6-.5.3-1.9-.7-1.7-1-2.7-1.3-3.2-.6-.3.6-1.2 1.1-1.8 1.1-.7-.1-.1-1 1.2-2 1.3-1.1 1.8-2 1.3-2-.6 0-1.4.5-1.7 1.1-.4.6-1.4.8-2.2.5-1.1-.4-1.3-.2-.9.9.3.8.1 1.5-.4 1.5-.6 0-.9.3-.9.7.3 2.1-.2 3.2-1.5 2.7-.8-.3-1.6-.1-2 .4-.6 1 3 .9 4-.1.4-.4 1.4-.1 2.2.6 1.3 1 1.4.9.2-1.3-.9-1.9-1-2.2 0-1.3.7.6 1.8.9 2.5.7.7-.3 1.6 0 2.1.7.4.7.3 1-.4.5-.6-.3-1.3-.2-1.6.3-.4.5.1.8.9.7 2.6-.4 3-1.7 1.1-3.2-1.1-.8-1.6-1.4-1-1.4 1.6.1 4.6 2.8 4 3.8-.3.5.1.9.9.9.9 0 1.2-.9 1-2.9-.2-1.5 0-3 .5-3.3.5-.3.7.6.4 2.1-.3 1.5-.1 2.3.5 2 .5-.4 1.3-.1 1.7.5.5.8.3.9-.6.4-.9-.5-1.1-.4-.6.4 1 1.5 2.9.3 2.2-1.4-.5-1.5 3.1-.8 4.1.8.3.5.1.7-.5.3-.6-.3-1.3-.3-1.6.2-.6 1 4.4.9 6-.1.6-.3 1.4-.4 1.8 0 .3.4 1.7.7 3.1.8 2.3.1 2.4-.1 1-2.2-2-3-1.9-4.4 0-1.6.9 1.2 2.2 2 2.9 1.7.8-.3 1.7 0 2.2.7.4.7.3 1-.4.5-.6-.3-1.3-.2-1.6.3-.7 1 1.9.9 3-.1.8-.9-2.7-5.9-3.7-5.2-.5.3-.6 1-.3 1.6.4.7.2.8-.5.4-.6-.4-.8-1.2-.5-1.8.5-.8-.3-.9-2.3-.5-3.7.7-7.5-.2-6.6-1.6.3-.6.1-.7-.5-.3-1.8 1.1-1.4 2.6.6 2.7 1.5 0 1.5.1-.2.8-1.4.5-1.6 1-.7 1.5.6.4 1.9.2 2.8-.6 1.5-1.2 1.5-1.1.3.9-1.3 2-1.5 2-3.6.5-1.2-1-1.8-2-1.2-2.3.7-.4.6-.9-.1-1.4-.9-.5-.9-1.1.1-2.3 1.2-1.5 1.1-1.6-.4-.3-1 .7-1.6 1.7-1.3 2.1.3.4-.2 1.1-1.1 1.4-2.5.9-2.7.7-1.3-1.1 1.1-1.3 1.1-1.5.1-.9-.8.5-2.2.1-3.5-1.1-1.8-1.5-2-1.5-.8-.1zm16.5 7c-.9 1.4-2.3-.2-1.7-1.8.4-1.2.8-1.3 1.4-.3.4.7.5 1.7.3 2.1zM89.9 131.2c.7 1 1 1.8.6 1.8s-.2.6.4 1.3c.6.8.8 1.7.4 2-.9.9 1.8 3.8 2.9 3.1.5-.3.7-1.2.4-1.9-.5-1.5 3.1-.8 4.1.8.3.5.1.7-.5.3-.6-.3-1.3-.3-1.6.2-.6 1 4.4.9 6-.1.6-.3 1.4-.4 1.8 0 .3.4 1.7.7 3.1.8 2.3.1 2.4-.1 1-2.2-2-3-1.9-4.4 0-1.6.9 1.2 2.2 2 2.9 1.7.8-.3 1.7 0 2.2.7.4.7.3 1-.4.5-.6-.3-1.3-.2-1.6.3-.7 1 1.9.9 3-.1.8-.9-2.7-5.9-3.7-5.2-.5.3-.6 1-.3 1.6.4.7.2.8-.5.4-.6-.4-.8-1.2-.5-1.8.5-.8-.3-.9-2.3-.5-3.7.7-7.5-.2-6.6-1.6.3-.6.1-.7-.5-.3-1.8 1.1-1.4 2.6.6 2.7 1.5 0 1.5.1-.2.8-1.4.5-1.6 1-.7 1.5.6.4 1.9.2 2.8-.6 1.5-1.2 1.5-1.1.3.9-1.3 2-1.5 2-3.6.5-1.2-1-1.8-2-1.2-2.3.7-.4.6-.9-.1-1.4-.9-.5-.9-1.1.1-2.3 1.2-1.5 1.1-1.6-.4-.3-1 .7-1.6 1.7-1.3 2.1.3.4-.2 1.1-1.1 1.4-2.5.9-2.7.7-1.3-1.1 1.1-1.3 1.1-1.5.1-.9-.8.5-2.2.1-3.5-1.1-1.9-1.5-2-1.6-.8-.1zm16.5 7c-.9 1.4-2.3-.2-1.7-1.8.4-1.2.8-1.3 1.4-.3.4.7.5 1.7.3 2.1zM86.1 131.7c-.1 1.7 1.6 2.5 2.5 1.2.4-.7.3-.9-.4-.5-.5.3-1.3 0-1.5-.6-.4-.9-.6-1-.6-.1zM122.3 135.7c.4.3.1 1.3-.6 2.1-.8 1.1-.8 1.4 0 .9.6-.4 1.3-.4 1.6 0 .2.5.2.2 0-.6s.2-1.1 1.1-.8c1 .4 1.3.1.9-.9-.3-.7-1.2-1.4-2.1-1.4-.8 0-1.2.3-.9.7zM23.9 136.2c-.6 2.5-.6 3.8.1 3.8 1.2 0 2-2.9 1-3.5-.6-.4-1-.5-1.1-.3z"/></svg>