<?xml version="1.0" standalone="no"?>
<!DOCTYPE svg PUBLIC "-//W3C//DTD SVG 20010904//EN"
 "http://www.w3.org/TR/2001/REC-SVG-20010904/DTD/svg10.dtd">
<svg version="1.0" xmlns="http://www.w3.org/2000/svg"
 width="400.000000pt" height="400.000000pt" viewBox="0 0 400.000000 400.000000"
 preserveAspectRatio="xMidYMid meet">
<metadata>
Created by potrace 1.11, written by Peter Selinger 2001-2013
</metadata>
<g transform="translate(0.000000,400.000000) scale(0.100000,-0.100000)"
fill="#000000" stroke="none">
<path d="M1946 3933 c1 -37 2 -76 3 -85 1 -15 10 -18 51 -18 56 0 51 -11 54
113 l1 52 -55 3 -56 3 2 -68z"/>
<path d="M1730 3980 c-6 -4 -9 -20 -6 -36 3 -16 8 -49 11 -74 4 -25 10 -48 13
-51 4 -4 27 -4 52 0 40 5 45 9 43 31 -1 14 -3 45 -4 70 -4 68 -6 71 -55 69
-24 -2 -49 -6 -54 -9z"/>
<path d="M2169 3984 c-1 -5 -3 -29 -5 -54 -2 -25 -6 -58 -8 -73 -5 -31 1 -35
59 -39 l40 -3 13 79 c7 43 11 81 8 84 -10 9 -106 15 -107 6z"/>
<path d="M1546 3949 c-22 -5 -41 -11 -42 -12 -2 -2 6 -38 16 -81 11 -43 20
-80 20 -81 0 -1 23 2 51 8 l50 10 -6 41 c-13 78 -27 126 -39 125 -6 -1 -29 -5
-50 -10z"/>
<path d="M2381 3913 c-6 -26 -13 -64 -16 -83 l-6 -36 50 -10 50 -10 16 65 c9
36 18 73 21 82 5 17 -13 25 -77 35 -25 5 -28 1 -38 -43z"/>
<path d="M1376 3902 c-3 -5 -18 -12 -33 -15 -56 -13 -58 -18 -27 -101 22 -57
33 -74 44 -70 8 3 20 7 25 8 28 6 55 18 55 25 0 15 -43 146 -50 154 -4 5 -10
4 -14 -1z"/>
<path d="M2582 3826 c-12 -41 -22 -76 -22 -79 0 -10 90 -35 95 -27 18 29 55
144 48 150 -10 9 -72 30 -88 30 -7 0 -22 -33 -33 -74z"/>
<path d="M1133 3803 l-52 -24 36 -72 c20 -40 38 -74 40 -76 4 -5 82 30 88 39
3 4 -10 41 -28 82 l-32 74 -52 -23z"/>
<path d="M2784 3753 c-16 -37 -30 -70 -32 -74 -2 -5 16 -18 39 -30 50 -25 50
-25 99 71 l28 56 -41 22 c-23 12 -47 22 -53 22 -6 0 -24 -30 -40 -67z"/>
<path d="M1930 2905 l0 -825 -460 0 -460 0 0 -75 0 -75 535 0 535 0 0 900 0
900 -75 0 -75 0 0 -825z"/>
<path d="M935 3693 c-22 -14 -41 -27 -43 -29 -9 -7 92 -143 102 -137 6 4 25
16 41 27 17 12 31 22 33 22 5 2 -82 144 -88 144 -3 0 -23 -12 -45 -27z"/>
<path d="M2972 3649 c-24 -39 -42 -72 -40 -73 2 -2 17 -12 35 -24 17 -12 37
-22 45 -22 12 0 104 128 96 134 -17 14 -84 56 -88 56 -3 0 -24 -32 -48 -71z"/>
<path d="M752 3563 l-43 -38 33 -37 c18 -20 43 -49 55 -63 l23 -26 39 32 40
32 -29 41 c-17 22 -40 53 -53 69 l-22 27 -43 -37z"/>
<path d="M3179 3568 c-13 -18 -26 -35 -29 -38 -3 -3 -16 -19 -27 -36 l-22 -31
22 -18 c12 -10 30 -24 39 -33 16 -13 20 -12 42 14 13 16 37 45 54 64 17 19 29
38 26 41 -2 4 -22 21 -43 38 l-39 31 -23 -32z"/>
<path d="M605 3432 c-11 -10 -28 -28 -39 -39 -16 -19 -16 -24 -4 -35 8 -7 35
-33 61 -57 l47 -45 36 37 37 37 -54 59 c-30 32 -56 59 -59 60 -3 0 -14 -8 -25
-17z"/>
<path d="M3349 3430 c-8 -10 -32 -38 -53 -61 l-39 -41 36 -36 36 -36 59 55
c33 29 60 57 61 61 1 7 -68 78 -77 78 -4 0 -14 -9 -23 -20z"/>
<path d="M436 3247 c-33 -39 -35 -43 -19 -55 10 -7 27 -21 38 -30 11 -10 34
-27 52 -40 l31 -22 31 39 32 40 -38 35 c-21 19 -50 44 -64 55 l-27 21 -36 -43z"/>
<path d="M3490 3259 c-19 -17 -47 -41 -63 -53 l-27 -22 31 -42 31 -42 26 20
c15 11 38 28 52 38 63 42 63 44 22 90 l-37 42 -35 -31z"/>
<path d="M306 3065 c-15 -25 -27 -47 -25 -49 2 -2 34 -22 71 -44 l67 -41 20
25 c20 25 36 63 29 68 -12 10 -127 86 -130 86 -2 0 -16 -20 -32 -45z"/>
<path d="M3588 3063 l-66 -45 26 -43 26 -44 56 31 c99 54 97 50 64 102 -16 25
-31 46 -34 45 -3 0 -35 -21 -72 -46z"/>
<path d="M200 2869 c-13 -27 -22 -51 -19 -53 5 -4 140 -66 145 -66 2 0 13 19
25 42 25 49 25 49 -72 98 l-56 29 -23 -50z"/>
<path d="M3705 2883 c-38 -19 -72 -37 -74 -39 -10 -9 40 -96 52 -91 70 28 137
61 137 67 0 8 -40 100 -43 100 -1 -1 -33 -17 -72 -37z"/>
<path d="M119 2683 c-28 -75 -27 -77 53 -101 41 -12 77 -22 80 -22 11 0 37 89
28 95 -11 7 -139 55 -145 55 -3 0 -10 -12 -16 -27z"/>
<path d="M3820 2696 c-19 -8 -52 -20 -72 -29 l-37 -16 15 -45 c9 -25 19 -46
22 -46 4 0 40 10 80 22 81 23 82 25 53 101 -12 30 -13 31 -61 13z"/>
<path d="M51 2449 c-6 -29 -10 -54 -8 -56 5 -4 136 -33 153 -33 5 0 15 22 20
49 l10 50 -65 16 c-36 9 -73 18 -83 21 -13 4 -19 -6 -27 -47z"/>
<path d="M3849 2478 l-76 -19 10 -47 c6 -26 11 -48 12 -50 4 -5 142 20 154 28
9 5 9 20 0 58 -6 29 -14 52 -17 51 -4 -1 -41 -10 -83 -21z"/>
<path d="M15 2247 c-13 -67 -6 -79 50 -83 28 -3 63 -6 78 -8 31 -5 33 -2 40
60 l5 42 -57 6 c-31 4 -68 9 -83 12 -24 5 -27 2 -33 -29z"/>
<path d="M3890 2268 c-36 -5 -68 -12 -71 -16 -4 -4 -4 -27 0 -52 l6 -45 55 4
c30 2 66 4 80 5 18 1 26 9 28 25 6 36 -8 91 -21 90 -7 -1 -41 -6 -77 -11z"/>
<path d="M5 2052 c-3 -3 -5 -28 -5 -56 l0 -51 63 1 c117 3 107 -2 107 54 0 48
-1 50 -27 51 -16 0 -51 2 -80 3 -29 2 -55 1 -58 -2z"/>
<path d="M3853 2052 c-20 -3 -23 -9 -23 -53 0 -44 2 -49 23 -50 12 -1 50 -2
85 -3 l63 -2 -3 56 -3 55 -60 0 c-33 0 -70 -1 -82 -3z"/>
<path d="M138 1845 c-2 -2 -30 -5 -63 -7 l-60 -4 0 -52 c1 -28 3 -53 6 -56 6
-7 152 14 160 22 4 4 4 27 0 51 -4 31 -11 45 -23 47 -9 1 -18 1 -20 -1z"/>
<path d="M3827 1842 c-3 -4 -7 -27 -8 -51 -4 -44 -3 -45 31 -52 19 -4 56 -9
82 -13 47 -5 47 -5 53 28 13 64 5 78 -45 82 -25 2 -59 6 -77 9 -18 3 -34 1
-36 -3z"/>
<path d="M113 1626 c-35 -7 -66 -15 -69 -19 -6 -6 15 -107 22 -107 9 0 144 39
153 44 5 3 4 25 -2 51 -12 50 -9 49 -104 31z"/>
<path d="M3783 1591 l-10 -49 66 -17 c36 -9 73 -18 82 -21 13 -3 19 6 28 40 6
25 11 49 11 54 0 10 -53 25 -126 37 l-41 6 -10 -50z"/>
<path d="M170 1418 c-36 -11 -67 -22 -69 -24 -6 -5 21 -94 30 -99 7 -5 125 35
149 50 12 7 -19 95 -33 94 -7 0 -41 -10 -77 -21z"/>
<path d="M3726 1394 l-15 -45 34 -15 c19 -8 51 -21 71 -29 20 -8 40 -15 44
-15 10 0 50 99 42 104 -8 5 -147 46 -155 46 -3 0 -12 -21 -21 -46z"/>
<path d="M250 1219 c-35 -17 -66 -32 -69 -35 -2 -2 6 -26 19 -54 l23 -49 71
36 c39 20 73 38 75 40 7 5 -38 93 -46 92 -5 0 -37 -14 -73 -30z"/>
<path d="M3649 1209 c-25 -50 -25 -50 72 -99 l56 -29 22 43 c11 24 21 48 21
53 0 8 -44 30 -141 71 -5 2 -18 -16 -30 -39z"/>
<path d="M354 1029 c-38 -22 -71 -42 -73 -44 -3 -3 21 -44 50 -88 4 -5 38 12
77 38 l71 47 -26 42 c-14 22 -26 42 -27 43 -1 1 -33 -16 -72 -38z"/>
<path d="M3549 1027 l-26 -42 70 -49 c38 -27 72 -44 76 -39 29 44 53 85 50 87
-6 5 -139 86 -142 86 -1 0 -14 -19 -28 -43z"/>
<path d="M473 852 c-35 -26 -63 -52 -63 -57 0 -6 14 -27 31 -48 l31 -37 58 47
c32 27 61 53 63 58 3 6 -9 27 -27 47 l-31 36 -62 -46z"/>
<path d="M3431 862 c-16 -21 -27 -42 -23 -48 4 -5 32 -31 63 -57 l56 -47 19
23 c61 70 63 59 -15 116 l-70 50 -30 -37z"/>
<path d="M607 684 c-52 -48 -57 -57 -45 -72 15 -19 60 -57 68 -57 3 0 29 26
59 58 l54 58 -34 34 c-19 19 -36 34 -39 34 -3 0 -31 -24 -63 -55z"/>
<path d="M3291 705 l-34 -34 44 -49 c66 -73 76 -78 102 -49 52 57 53 51 -10
111 -32 31 -60 56 -63 56 -3 -1 -20 -16 -39 -35z"/>
<path d="M814 592 c-5 -4 -31 -32 -57 -63 l-47 -56 23 -19 c70 -61 59 -63 116
15 l50 70 -37 30 c-21 16 -42 27 -48 23z"/>
<path d="M3138 566 c-36 -30 -36 -32 -20 -53 17 -21 57 -73 77 -99 8 -11 19
-6 53 22 l42 36 -47 58 c-27 32 -53 61 -58 63 -6 3 -27 -9 -47 -27z"/>
<path d="M2985 459 c-16 -11 -36 -23 -43 -28 -11 -6 -4 -23 28 -77 23 -38 44
-71 46 -73 2 -3 44 21 87 50 5 4 -12 38 -39 78 -26 39 -47 71 -48 70 -1 0 -14
-9 -31 -20z"/>
<path d="M935 408 c-22 -34 -41 -65 -42 -68 -3 -6 86 -64 91 -59 11 12 87 142
84 143 -52 36 -68 46 -80 46 -7 0 -31 -28 -53 -62z"/>
<path d="M1153 358 c-5 -7 -23 -40 -41 -74 l-31 -61 49 -23 c28 -13 52 -22 54
-19 4 5 66 140 66 145 0 4 -76 44 -83 44 -3 0 -9 -6 -14 -12z"/>
<path d="M2788 349 c-21 -11 -38 -21 -38 -24 0 -2 15 -38 34 -79 l34 -75 51
26 50 26 -37 73 c-20 41 -41 73 -47 73 -5 0 -27 -9 -47 -20z"/>
<path d="M1345 280 c-18 -29 -55 -144 -48 -150 10 -9 72 -30 88 -30 9 0 55
128 55 153 0 10 -90 35 -95 27z"/>
<path d="M2606 274 c-22 -8 -41 -16 -43 -18 -9 -8 41 -156 52 -156 16 0 78 21
88 30 8 7 -27 114 -44 136 -5 6 -6 14 -2 17 10 10 -8 7 -51 -9z"/>
<path d="M1525 161 c-9 -36 -18 -73 -21 -83 -4 -13 6 -19 47 -27 58 -13 58
-13 65 20 15 74 25 131 22 133 -2 1 -24 7 -50 13 l-46 10 -17 -66z"/>
<path d="M2408 217 c-27 -5 -48 -14 -48 -21 0 -17 29 -148 33 -153 2 -2 27 2
56 8 41 8 51 14 47 27 -3 10 -12 46 -21 82 -9 36 -18 65 -18 66 -1 0 -23 -4
-49 -9z"/>
<path d="M1745 177 c-13 -34 -23 -152 -14 -157 15 -10 99 -12 100 -3 1 4 3 28
5 53 2 25 6 58 8 73 5 30 2 32 -57 41 -25 3 -40 1 -42 -7z"/>
<path d="M2198 183 c-41 -4 -41 -5 -37 -73 1 -25 2 -58 3 -73 1 -27 3 -28 46
-26 66 4 72 7 66 43 -3 17 -8 51 -11 76 -7 48 -12 61 -23 58 -4 -1 -24 -3 -44
-5z"/>
<path d="M1948 158 c-2 -7 -3 -44 -3 -83 l0 -70 55 -3 56 -3 -2 68 c-1 37 -2
76 -3 86 -1 14 -10 17 -50 17 -30 0 -50 -5 -53 -12z"/>
</g>
</svg>
