<?xml version="1.0" standalone="no"?>
<!DOCTYPE svg PUBLIC "-//W3C//DTD SVG 20010904//EN"
 "http://www.w3.org/TR/2001/REC-SVG-20010904/DTD/svg10.dtd">
<svg version="1.0" xmlns="http://www.w3.org/2000/svg"
 width="700.000000pt" height="700.000000pt" viewBox="0 0 700.000000 700.000000"
 preserveAspectRatio="xMidYMid meet">
<metadata>
Created by potrace 1.11, written by Peter Selinger 2001-2013
</metadata>
<g transform="translate(0.000000,700.000000) scale(0.100000,-0.100000)"
fill="#000000" stroke="none">
<path d="M1195 6523 c-81 -11 -204 -46 -272 -78 -223 -103 -358 -240 -459
-464 -85 -190 -79 12 -79 -2576 l0 -2290 22 -100 c12 -55 31 -125 42 -155 29
-78 148 -255 212 -316 109 -104 276 -198 423 -237 l81 -22 2335 0 2335 0 83
22 c226 61 440 219 561 416 69 112 94 183 120 338 l21 125 -3 2264 -3 2265
-22 96 c-35 155 -121 320 -226 436 -92 101 -285 212 -448 255 l-83 23 -2305 1
c-1268 1 -2318 -1 -2335 -3z m2753 -1162 c44 -13 237 -137 262 -169 23 -28 25
-59 9 -96 -9 -19 -233 -152 -883 -527 -479 -277 -999 -577 -1156 -667 -417
-241 -419 -242 -493 -242 -39 0 -77 7 -103 19 -34 16 -298 166 -941 538 l-113
65 0 240 0 240 43 -25 c23 -13 273 -151 555 -307 l513 -282 52 4 c45 4 88 25
322 160 653 375 1793 1023 1830 1039 46 21 58 22 103 10z m138 -1084 c121 -77
144 -101 144 -152 0 -13 -10 -35 -22 -49 -13 -14 -340 -209 -728 -432 -388
-223 -869 -501 -1070 -616 -201 -116 -421 -243 -490 -283 -69 -39 -140 -77
-159 -83 -48 -17 -119 -14 -168 6 -23 9 -272 150 -552 312 l-511 294 0 238 0
239 33 -17 c17 -9 248 -136 512 -282 264 -146 504 -276 533 -290 97 -44 -95
-144 1717 891 270 154 504 286 520 294 60 27 110 13 241 -70z m-111 -926 c70
-32 233 -144 244 -169 18 -38 13 -70 -16 -100 -16 -16 -289 -179 -608 -362
-319 -184 -674 -388 -790 -455 -730 -422 -1014 -583 -1044 -593 -41 -14 -104
-15 -149 -3 -18 6 -269 146 -557 313 l-525 302 0 238 0 239 30 -16 c17 -9 264
-145 548 -303 622 -345 558 -326 752 -216 1097 627 1976 1127 1994 1134 34 14
78 11 121 -9z"/>
</g>
</svg>
